# xmcd CD database file
#
# Track frame offsets:
#	150
#	41006
#	78095
#	148830
#
# Disc length: 2961 seconds
#
# Revision: 2
# Processed by: cddbd v1.5.2PL0 Copyright (c) Steve Scherf et al.
# Submitted via: CDex 1.70
#
DISCID=2d0b8f04
DTITLE=Sven Nordqvist - Pettersson und Findus [CD2]
DYEAR=2010
DGENRE=Kids
TTITLE0=Ein toller Hecht (1)
TTITLE1=Ein toller Hecht (2)
TTITLE2=Pettersson zeltet
TTITLE3=Schatzsuche
EXTD=YEAR: 2010
EXTT0=
EXTT1=
EXTT2=
EXTT3=
PLAYORDER=
